Coordinates
version=1
nRows=7
nColumns=40
inDegrees=yes

Units are S.I. units (second, meters, Newtons, ...)
Angles are in degrees.

endheader
time	pelvis_tilt	pelvis_list	pelvis_rotation	pelvis_tx	pelvis_ty	pelvis_tz	hip_flexion_r	hip_adduction_r	hip_rotation_r	knee_angle_r	knee_angle_r_beta	ankle_angle_r	subtalar_angle_r	mtp_angle_r	hip_flexion_l	hip_adduction_l	hip_rotation_l	knee_angle_l	knee_angle_l_beta	ankle_angle_l	subtalar_angle_l	mtp_angle_l	lumbar_extension	lumbar_bending	lumbar_rotation	arm_flex_r	arm_add_r	arm_rot_r	elbow_flex_r	pro_sup_r	wrist_flex_r	wrist_dev_r	arm_flex_l	arm_add_l	arm_rot_l	elbow_flex_l	pro_sup_l	wrist_flex_l	wrist_dev_l
     46.61000000	     -3.00772985	     -4.87688649	      2.89957805	      0.79447160	      0.93340112	      0.52328533	      9.69349132	      4.14636393	    -18.02723198	     13.61592647	     13.61592647	      9.67468163	      3.78157145	     -6.29442997	     29.93061160	    -12.34130493	     -0.80973604	     47.53487221	     47.53487221	     12.31560555	    -18.67919183	     16.07085320	    -10.88321415	      8.63912393	      2.95508601	     21.00095634	    -17.45000784	     -6.06898309	     52.87461962	     45.05509339	      0.00000000	      0.00000000	     -9.70092761	    -10.87137206	     -5.60896738	     53.66748661	     45.68711060	      0.00000000	      0.00000000
     46.62342857	     -3.13689519	     -4.84589689	      3.13949832	      0.79344075	      0.93322326	      0.52381345	      9.27787747	      4.20598907	    -18.14029171	     13.36623424	     13.36623424	      9.91983041	      3.77730147	     -6.35336607	     30.52553921	    -12.05838175	     -0.84828508	     44.47381097	     44.47381097	     12.55350419	    -18.42213646	     16.03723992	    -10.73601554	      8.58613259	      2.80707138	     22.10828189	    -17.18970738	     -6.09830164	     53.74890579	     45.03482819	      0.00000000	      0.00000000	    -10.48742885	    -10.60022389	     -5.29010821	     52.94037985	     45.65303227	      0.00000000	      0.00000000
     46.63685714	     -3.09628431	     -4.89141608	      3.45971309	      0.79256969	      0.93321731	      0.52430763	      8.59984549	      4.36542288	    -18.41829250	     12.98570599	     12.98570599	     10.16988363	      3.99900360	     -6.42380314	     30.74230447	    -11.80716099	     -0.80264734	     41.06337838	     41.06337838	     12.29561857	    -18.02398721	     15.48779502	    -10.71655240	      8.69780301	      2.36739340	     23.31613984	    -16.59226408	     -6.04138941	     55.10965391	     44.99657220	      0.00000000	      0.00000000	    -11.24912848	    -10.47504642	     -4.75134964	     51.59262676	     45.59934038	      0.00000000	      0.00000000
     46.65028571	     -3.09842997	     -5.00217211	      3.69232533	      0.79182753	      0.93300376	      0.52473608	      7.99614791	      4.54893776	    -18.90626633	     12.67790472	     12.67790472	     10.45193030	      4.63202484	     -6.56343327	     30.64104997	    -11.68319778	     -0.98622154	     37.10019714	     37.10019714	     10.51355482	    -17.58371614	     10.75276163	    -10.64306282	      8.92370331	      2.96746247	     23.56346511	    -16.97069957	     -6.02479757	     57.63250396	     44.95241787	      0.00000000	      0.00000000	    -10.78818358	    -10.32304107	     -2.89959314	     48.50260061	     45.49231678	      0.00000000	      0.00000000
     46.66371429	     -3.21052807	     -5.01806899	      3.92472455	      0.79092956	      0.93267113	      0.52509616	      7.56375010	      4.66602074	    -18.99058440	     12.40413589	     12.40413589	     10.67414585	      4.63949983	     -6.57412033	     30.72179592	    -11.34391333	     -0.94285055	     33.50299274	     33.50299274	     10.50473865	    -16.45953412	     11.03437614	    -10.49700741	      8.92608331	      2.76076034	     24.64706711	    -16.57614002	     -6.09217389	     58.62025185	     44.93018223	      0.00000000	      0.00000000	    -11.60727451	    -10.06843794	     -2.52043110	     47.94985148	     45.45183250	      0.00000000	      0.00000000
     46.67714286	     -3.16649117	     -5.09580408	      4.13476331	      0.79022896	      0.93248852	      0.52540562	      6.94036616	      4.84284837	    -19.22333872	     12.11129133	     12.11129133	     10.92226940	      4.93068166	     -6.59733403	     30.54590919	    -11.09799011	     -0.90990495	     29.97476670	     29.97476670	     10.43284860	    -15.01513926	     11.06839957	    -10.50741248	      9.02976194	      2.41368601	     25.81903749	    -15.95634179	     -6.07931132	     59.97493888	     44.89375312	      0.00000000	      0.00000000	    -12.37407216	     -9.90279210	     -1.94487230	     46.93394645	     45.39268946	      0.00000000	      0.00000000
     46.69057143	     -3.21756392	     -5.17222142	      4.30825720	      0.78947173	      0.93215420	      0.52558116	      6.46712911	      4.99227374	    -19.43263404	     11.88938853	     11.88938853	     11.15557809	      5.23742530	     -6.61534610	     30.47667920	    -10.87675509	     -0.95869015	     26.69484766	     26.69484766	     10.36825386	    -13.19160750	     11.13298696	    -10.40185082	      9.10246023	      2.23612277	     26.86161418	    -15.50027010	     -6.02872488	     61.23130861	     44.85791526	      0.00000000	      0.00000000	    -12.99196758	     -9.63250879	     -1.37591946	     45.97200367	     45.33296617	      0.00000000	      0.00000000
